<svg width="628" height="633" xmlns="http://www.w3.org/2000/svg" xmlns:xlink="http://www.w3.org/1999/xlink" xml:space="preserve" overflow="hidden"><defs><clipPath id="clip0"><rect x="3102" y="297" width="628" height="633"/></clipPath><clipPath id="clip1"><rect x="3195" y="385" width="443" height="444"/></clipPath><clipPath id="clip2"><rect x="3195" y="385" width="443" height="444"/></clipPath><clipPath id="clip3"><rect x="3195" y="385" width="443" height="444"/></clipPath></defs><g clip-path="url(#clip0)" transform="translate(-3102 -297)"><path d="M3104 614C3104 441.687 3243.69 302 3416 302 3588.31 302 3728 441.687 3728 614 3728 786.313 3588.31 926 3416 926 3243.69 926 3104 786.313 3104 614Z" fill="#F2F2F2" fill-rule="evenodd" fill-opacity="1"/><g clip-path="url(#clip1)"><g clip-path="url(#clip2)"><g clip-path="url(#clip3)"><path d="M221.5 92.2916C230.42 92.2916 237.651 85.0606 237.651 76.1406 237.651 67.2206 230.42 59.9895 221.5 59.9895L221.038 59.9895C212.259 60.1464 205.251 67.36 205.349 76.1406 205.364 85.0541 212.586 92.2764 221.5 92.2916ZM216.461 71.2491C217.706 69.9695 219.41 69.2386 221.195 69.2187L221.5 69.2187C225.323 69.2187 228.422 72.3179 228.421 76.141 228.421 79.9638 225.322 83.0625 221.499 83.0625 217.676 83.0625 214.578 79.9633 214.578 76.1401 214.578 76.1175 214.578 76.0944 214.578 76.0714 214.536 74.2818 215.213 72.5504 216.456 71.263Z" stroke="#EA5324" stroke-width="4.61458" stroke-linecap="butt" stroke-linejoin="miter" stroke-miterlimit="4" stroke-opacity="1" fill="#F2F2F2" fill-rule="nonzero" fill-opacity="1" transform="matrix(1 0 0 1 3195 385)"/><path d="M191.311 160.149 184.786 153.624 151.132 187.274 135.936 172.082 129.411 178.607 151.132 200.328 191.311 160.149Z" stroke="#EA5324" stroke-width="4.61458" stroke-linecap="butt" stroke-linejoin="miter" stroke-miterlimit="4" stroke-opacity="1" fill="#F2F2F2" fill-rule="nonzero" fill-opacity="1" transform="matrix(1 0 0 1 3195 385)"/><path d="M216.89 170.73 313.796 170.73 313.796 179.959 216.89 179.959Z" stroke="#EA5324" stroke-width="4.61458" stroke-linecap="butt" stroke-linejoin="miter" stroke-miterlimit="4" stroke-opacity="1" fill="#F2F2F2" fill-rule="nonzero" fill-opacity="1" transform="matrix(1 0 0 1 3195 385)"/><path d="M191.311 215.533 184.786 209.008 151.132 242.662 135.936 227.467 129.411 233.992 151.132 255.712 191.311 215.533Z" stroke="#EA5324" stroke-width="4.61458" stroke-linecap="butt" stroke-linejoin="miter" stroke-miterlimit="4" stroke-opacity="1" fill="#F2F2F2" fill-rule="nonzero" fill-opacity="1" transform="matrix(1 0 0 1 3195 385)"/><path d="M216.89 226.114 313.796 226.114 313.796 235.344 216.89 235.344Z" stroke="#EA5324" stroke-width="4.61458" stroke-linecap="butt" stroke-linejoin="miter" stroke-miterlimit="4" stroke-opacity="1" fill="#F2F2F2" fill-rule="nonzero" fill-opacity="1" transform="matrix(1 0 0 1 3195 385)"/><path d="M191.311 270.908 184.786 264.383 151.132 298.037 135.936 282.841 129.411 289.367 151.132 311.087 191.311 270.908Z" stroke="#EA5324" stroke-width="4.61458" stroke-linecap="butt" stroke-linejoin="miter" stroke-miterlimit="4" stroke-opacity="1" fill="#F2F2F2" fill-rule="nonzero" fill-opacity="1" transform="matrix(1 0 0 1 3195 385)"/><path d="M216.89 281.489 313.796 281.489 313.796 290.719 216.89 290.719Z" stroke="#EA5324" stroke-width="4.61458" stroke-linecap="butt" stroke-linejoin="miter" stroke-miterlimit="4" stroke-opacity="1" fill="#F2F2F2" fill-rule="nonzero" fill-opacity="1" transform="matrix(1 0 0 1 3195 385)"/><path d="M191.311 326.283 184.786 319.758 151.132 353.412 135.936 338.216 129.411 344.741 151.132 366.462 191.311 326.283Z" stroke="#EA5324" stroke-width="4.61458" stroke-linecap="butt" stroke-linejoin="miter" stroke-miterlimit="4" stroke-opacity="1" fill="#F2F2F2" fill-rule="nonzero" fill-opacity="1" transform="matrix(1 0 0 1 3195 385)"/><path d="M216.89 336.864 313.796 336.864 313.796 346.094 216.89 346.094Z" stroke="#EA5324" stroke-width="4.61458" stroke-linecap="butt" stroke-linejoin="miter" stroke-miterlimit="4" stroke-opacity="1" fill="#F2F2F2" fill-rule="nonzero" fill-opacity="1" transform="matrix(1 0 0 1 3195 385)"/><path d="M359.937 87.5801C359.937 77.3861 351.673 69.1218 341.479 69.1218L272.26 69.1218 272.26 59.8926C272.245 47.1559 261.924 36.835 249.187 36.8197L193.812 36.8197C181.076 36.835 170.755 47.1559 170.739 59.8926L170.739 69.1218 101.521 69.1218C91.3267 69.1218 83.0625 77.3861 83.0625 87.5801L83.0625 387.625C83.0625 397.819 91.3267 406.083 101.521 406.083L341.479 406.083C351.673 406.083 359.937 397.819 359.937 387.625ZM161.51 78.351 179.969 78.351 179.969 59.8926C179.969 52.2467 186.166 46.0489 193.812 46.0489L249.187 46.0489C256.833 46.0489 263.031 52.2467 263.031 59.8926L263.031 78.351 281.489 78.351 281.489 115.365 161.51 115.365ZM341.479 396.854 101.521 396.854C96.4235 396.854 92.2916 392.722 92.2916 387.625L92.2916 87.5801C92.2916 82.4829 96.4235 78.351 101.521 78.351L152.281 78.351 152.281 124.594 290.719 124.594 290.719 78.351 341.479 78.351C346.576 78.351 350.708 82.4829 350.708 87.5801L350.708 387.625C350.708 392.722 346.576 396.854 341.479 396.854Z" stroke="#EA5324" stroke-width="4.61458" stroke-linecap="butt" stroke-linejoin="miter" stroke-miterlimit="4" stroke-opacity="1" fill="#F2F2F2" fill-rule="nonzero" fill-opacity="1" transform="matrix(1 0 0 1 3195 385)"/></g></g></g></g></svg>