<svg width="628" height="627" xmlns="http://www.w3.org/2000/svg" xmlns:xlink="http://www.w3.org/1999/xlink" xml:space="preserve" overflow="hidden"><defs><clipPath id="clip0"><rect x="2181" y="275" width="628" height="627"/></clipPath><clipPath id="clip1"><rect x="2227" y="349" width="527" height="528"/></clipPath><clipPath id="clip2"><rect x="2227" y="349" width="527" height="528"/></clipPath><clipPath id="clip3"><rect x="2227" y="349" width="527" height="528"/></clipPath></defs><g clip-path="url(#clip0)" transform="translate(-2181 -275)"><path d="M2182 590C2182 417.687 2321.69 278 2494 278 2666.31 278 2806 417.687 2806 590 2806 762.313 2666.31 902 2494 902 2321.69 902 2182 762.313 2182 590Z" fill="#F2F2F2" fill-rule="evenodd" fill-opacity="1"/><g clip-path="url(#clip1)"><g clip-path="url(#clip2)"><g clip-path="url(#clip3)"><path d="M430.695 93.1458 95.3704 93.1458C85.0213 93.2061 76.6809 101.645 76.7412 111.994 76.7412 111.994 76.7412 111.994 76.7412 111.994L76.7412 338.503C76.6804 348.852 85.0208 357.29 95.3698 357.351 95.3698 357.351 95.3704 357.351 95.3704 357.351L300.291 357.351 374.808 432.854 374.808 357.351 430.695 357.351C441.044 357.291 449.385 348.852 449.324 338.503 449.324 338.503 449.324 338.503 449.324 338.503L449.324 111.994C449.385 101.645 441.045 93.2066 430.696 93.1458 430.696 93.1458 430.695 93.1458 430.695 93.1458ZM318.235 301.354 263.033 263.137 207.83 301.354 226.936 237.659 178.106 195.195 241.801 195.195 263.033 131.5 284.265 195.195 347.96 195.195 299.13 237.659Z" stroke="#EA5324" stroke-width="6.61635" stroke-linecap="butt" stroke-linejoin="miter" stroke-miterlimit="4" stroke-opacity="1" fill="#F2F2F2" fill-rule="nonzero" fill-opacity="1" transform="matrix(1 0 0 1.0019 2227 350)"/></g></g></g></g></svg>