<svg width="628" height="628" xmlns="http://www.w3.org/2000/svg" xmlns:xlink="http://www.w3.org/1999/xlink" xml:space="preserve" overflow="hidden"><defs><clipPath id="clip0"><rect x="586" y="265" width="628" height="628"/></clipPath><clipPath id="clip1"><rect x="644" y="309" width="511" height="511"/></clipPath><clipPath id="clip2"><rect x="644" y="309" width="511" height="511"/></clipPath><clipPath id="clip3"><rect x="644" y="309" width="511" height="511"/></clipPath></defs><g clip-path="url(#clip0)" transform="translate(-586 -265)"><path d="M588 580C588 407.687 727.687 268 900 268 1072.31 268 1212 407.687 1212 580 1212 752.313 1072.31 892 900 892 727.687 892 588 752.313 588 580Z" fill="#F2F2F2" fill-rule="evenodd" fill-opacity="1"/><g clip-path="url(#clip1)"><g clip-path="url(#clip2)"><g clip-path="url(#clip3)"><path d="M1013.98 457.527 1036.57 434.944C1038.61 432.833 1038.55 429.47 1036.44 427.432 1034.38 425.443 1031.12 425.443 1029.06 427.432L1005.68 450.807C976.735 428.827 941.643 416.442 905.312 415.383L905.312 383.375 958.437 383.375 958.437 372.75 841.562 372.75 841.562 383.375 894.687 383.375 894.687 415.383C797.797 418.209 721.544 499.045 724.37 595.935 727.196 692.825 808.033 769.078 904.922 766.252 1001.81 763.426 1078.07 682.59 1075.24 585.7 1073.8 536.252 1051.55 489.71 1013.98 457.527ZM917.882 754.299C827.464 764.164 746.169 698.862 736.304 608.445 726.44 518.027 791.741 436.732 882.159 426.867 972.577 417.003 1053.87 482.304 1063.74 572.722 1065.03 584.594 1065.03 596.572 1063.74 608.445 1055.29 685.227 994.664 745.85 917.882 754.299Z" stroke="#EA5324" stroke-width="4.19736" stroke-linecap="butt" stroke-linejoin="miter" stroke-miterlimit="4" stroke-opacity="1" fill="#FFFFFF" fill-rule="nonzero" fill-opacity="1"/><path d="M900 468.375 900 479C957.445 479.072 1005.47 522.704 1011.03 579.879 1011.03 579.912 1011.01 579.938 1010.97 579.938L926.031 579.938C923.097 565.564 909.067 556.29 894.693 559.224 880.319 562.158 871.046 576.189 873.979 590.563 876.913 604.936 890.944 614.21 905.318 611.276 915.749 609.147 923.902 600.994 926.031 590.563L1043.44 590.563 1043.44 579.938 1021.7 579.938C1016.12 516.857 963.327 468.459 900 468.375ZM900 601.188C891.198 601.188 884.062 594.052 884.062 585.25 884.062 576.448 891.198 569.313 900 569.313 908.802 569.313 915.937 576.448 915.937 585.25 915.937 594.052 908.802 601.188 900 601.188Z" stroke="#EA5324" stroke-width="4.19736" stroke-linecap="butt" stroke-linejoin="miter" stroke-miterlimit="4" stroke-opacity="1" fill="#FFFFFF" fill-rule="nonzero" fill-opacity="1"/></g></g></g></g></svg>